<svg xmlns="http://www.w3.org/2000/svg" width="392.176" height="558.605" viewBox="0 0 103.763 147.797"><defs><filter id="a" width="1" height="1" x="0" y="0" style="color-interpolation-filters:sRGB"><feGaussianBlur/></filter><filter id="b" width="1" height="1" x="0" y="0" style="color-interpolation-filters:sRGB"><feGaussianBlur stdDeviation=".001"/></filter></defs><g style="display:inline"><path d="M93.905 192.155c0-.333-.926-.54-1.207-.737-.774-.539-.085-1.676 1.251-2.857 3.896-3.053 8.49-4.26 10.665-8.01 1.898-3.8.866-4.224.235-8.512.753-1.987 5.377-2.13 4.956-.546-.557 2.096.169 5.074.296 7.06.125 1.957.862 3.315 1.36 3.376 1.115.571 6.889.947 9.837.757 2.993-.193 7.456.564 7.456 1.184 0 .37-2.709 1.877-4.51 2.33-.582.148-3.922.927-5.741 1.649-1.82.722-4.703 2.077-5.905 2.535-1.358.52-1.851.557-1.944.85-.251.791-.408 1.189-.495.143-3.771.118-5.855.105-7.277.209-6.528.477-7.248.174-8.283.697-.688.35-.694.444-.694-.128" style="display:inline;mix-blend-mode:normal;fill:#4a98b9;stroke-width:.264583" transform="rotate(12.236 294.05 -45.95)"/><path d="M109.847 174.897c-.614-.164-.921 2.018-1.246 2.689-.325.67-.225.73-.809 1.27-1.127.75-3.641 2.206-4.508 2.554-1.114.404-4.264 1.869-4.774 2.134a21 21 0 0 0-2.783 1.665c-.698.469-1.088.721-1.601 1.21-.239.521-.305.82.013.65.928-.607 1.603-1.163 2.496-1.716 1.04-.644 1.637-.94 2.82-1.505a73 73 0 0 1 4.181-1.822c.933-.36 2.436-.856 3.273-1.206.642-.269 1.071-.309 1.82-.573s1.332.564 1.394.893c.127.662.069 1.844-.13 3.737-.098.947-.319 2.602-.405 3.447-.168 1.64.595.886.605.81.194-1.497.515-3.463.698-5.035.183-1.584.253-2.28.469-2.543s.56-.068 1.419.503c.86.572 3.32 1.332 4.056 1.582 1.136.254 3.525.838 5.487 1.233.981.197 2.677.242 4.085.622.694.187 2.022.656 2.498.732.476.077.1-.239.105-.263s-.15-.201-.668-.36c-.446-.137-1.035-.414-1.755-.596-1.44-.364-3.325-.549-4.332-.77-2.013-.445-3.717-.796-4.7-1.074-.906-.259-3.432-1.076-4.307-1.651-.796-.513-1.856-.964-1.965-2.171-.073-.793.709-4.601.283-4.84-.478-.268-.504 1.292-1 1.091s-.105-.533-.719-.697" style="display:inline;fill:#396c90;fill-opacity:.5;stroke-width:.264583;filter:url(#a)" transform="translate(-45.667 -42.44)"/><path d="M128.994 186.59c-.37-.359-.221-.837.23-.845.299-.005.818.881.611 1.095-.09.094-.631-.049-.84-.25M93.639 186.762c.088-.357.13-.306.3-.43.087-.065.318-.254.655-.223.627.057.16.862-.351.97-.527.113-.763.321-.604-.317m15.769 2.618c.124-.5.612-.61.845-.224.155.257-.353 1.15-.641 1.078-.126-.031-.274-.571-.204-.854" style="display:inline;opacity:1;fill:#63605d;stroke-width:.264583" transform="translate(-45.667 -42.44)"/></g><g style="display:inline;opacity:1"><g style="display:inline"><path d="M76.13 170.723c-1.702-.82-1.725-.936-6.97-.974-1.482.027-4.942-.152-7.132-.678-2.19-.525-3.288-1.363-3.82-1.945-.802-.877-1.542-1.204-2.426-1.337-.657-.098-1.856-.469-2.663-.823-1.36-.597-1.93-1.03-3.519-2.675a318 318 0 0 0-1.74-1.777c-.63-.639-1.082-1.265-1.003-1.393.323-.522 3.59-1.701 4.864-1.99.733-.167 1.474-.403 1.977-.561.385-.122 1.127-.282 1.914-.42.897-.09 1.767-.166 2.52-.28.664-.101 2.56-.372 4.234-.498s3.352-.46 3.788-.514c.877-.11 1.54-.286 2.513-.287 2.59-.003 5.646-.85 7.101-1.593.705.134.896 1.65 1.66 2.585.763.934.999 1.583 2.113 2.354 2.241 1.549 4.114 3.13 5.712 4.262 2.582 1.745 3.216 2.488 2.392 2.805-.213.081-.551.773-.924 1.509-1.05 2.071-2.717 3.322-5.626 3.714-.682.093-1.783.465-2.276.799-.895.607-.988.537-2.69-.283" style="mix-blend-mode:normal;fill:#4a98b9;stroke-width:.264583" transform="translate(-45.911 -42.617)"/><path d="M87.612 101.38c2.372-5.833 3.35-7.788 4.965-11.364s4.654-8.867 8.617-12.833c1.354-1.356 14.108 2.51 16.52 10.037.602 1.882 8.295 4.058 7.15 6.417-1.25 2.577-2.417 5.248-1.964 8.782.456 3.548-2.151 8.014-2.669 12.519-.518 4.504-.74 9.625-1.152 15.262-.304 4.156 2.148 9.362 2.24 13.566s-1.284 13.364-3.547 16.483c-4.526 6.236-21.386 3.63-24.45 2.46-4.702-1.794-10.132-3.487-13.072-5.515s-3.996-2.41-4.457-4.118c-.568-2.103-1.77-6.077-.984-10.095.509-2.605 3.333-14.493 5.97-23.522 2.635-9.03 5.95-15.904 6.833-18.079" style="fill:#e6e6e6;stroke-width:.264583" transform="translate(-45.911 -42.617)"/><path d="M422.488 160.408c-2.125.02-4.473.18-7.95.686-7.329.995-11.548 1.016-16.892 3.525s-7.701 3.73-11.644 6.207-6.632 3.892-10.082 6.899-8.844 7.86-12.006 10.668c-4.407 3.287-16.483 17.874-21.123 22.658 1.794 2.014 28.684 25.409 40.855 53.869 3.906 3.534 2.393 15.262-2.935 22.744-1.055 1.482-1.92 3.183-1.92 3.781s-.9 1.651-2 2.338c-2.26 1.412-2.618 3.36-.75 4.088.802.313-.095 1.8-2.5 4.147-5.04 4.917-5.194 9.849-.19 6.064 3.661-2.769 3.846-1.53.333 2.219-6.206 6.623-13.38 15.095-12.186 16.289.155.154 4.118-4.148 5.445-5.215 2.714-2.18 1.831 6.331 3.573 4.53 1.959-2.026 1.133-4.873 1.68-7.199.548-2.326 2.469-4.13 2.919-4.07.9.119.798 2.39.707 6.95-.094 4.718.29 7.898 1.024 8.508.859.713 1.607-.252 1.26-2.069-.502-2.622 1.503-2.654 6.935-6.609 3.75-2.73 3.882.187.25 5.54-1.375 2.025-2.5 3.86-2.5 4.075 0 1.312 7.936-1.143 10.057-3.111 2.863-2.657 5.943-3.129 5.943-.91 0 .803-.69 2.04-1.533 2.75-3.96 3.326-4.552 4.181-4.27 6.164.48 3.361 4.016 3.184 6.616-.332 3.223-4.36 5.474-4.083 4.601.568-.446 2.38-.27 3.861.518 4.348 2.33 1.44 2.908-12.08 5.47-7.951 1.482 2.387-.018 11.297 4.778 6.8 9.544-8.95 8.055-6.816 7.158-2.87-.874 3.844.657 6.346 4.8 2.074 10.021-10.334 3.157 14.437 4.747 14.703 3.179.53 6.07-10.133 6.07-10.133 2.627-4.486 2.562-2.696 5.211 5.71 1.386 4.398 2.302-5.427 8.52-6.702 4.086-.839-4.068 10.089.439 7.162 3.987-2.59 6.527-3.914 7.062-1.641.268 1.136-2.769 4.812-1.787 5.955 1.67 1.944 5.642-4.115 5.569-.782-.067 3.083-.628 9.01.922 8.938s4.413-1.96 5.278-3.601c.815-1.549 1.849-3.364 3.831-9.62 1.74-5.49 3.281-8.42 4.082-10.55s1.82-7.157 2.926-10.465 1.934-7.078 2.746-9.703c.811-2.625 3.162-7.955 4.693-13.48.871-3.107 3.214-8.621 4.461-14.23.5-1.69.699-2.373 3.928-13.071s5.281-25.111 5.644-33.666.284-12.142-.232-18.94c-.516-6.797-1.938-9.142-3.531-12.91s-3.395-7.585-5.862-10.869-5.03-7.006-9.037-11.787-5.947-6.6-7.771-8.635c-2.951-3.273-7.41-6.818-11.455-10.238-2.481-2.142-11.682-5.85-15.092-6.59-10.812-2.344-13.534-2.6-19.187-2.838-2.587-.066-4.49-.189-6.616-.17m84.03 174.153c-2.286 4.331-8.21 9.008-20.051 19.654-1.36 2.14-8.425 1.883-9.553 3.797-4.618 7.479-8.605 15.962-12.93 23.334-1.74 4.324-.827.198-3.199 6.34s-1.068 14.91-1.635 21.213c-.544 4.81-4.554 7.362-6.52 12.878-1.549 4.344-3.215 7.905-4.321 11.116-1.12 3.247-2.057 4.676-4.67 10.812-5.058 14.666-5.895 23.566-6.557 34.943.56 15.46.84 21.982 3.428 31.96 2.587 9.977 8.457 27.553 11.027 35.064s2.419 7.7 3.094 10.951-1.498 6.031-2.89 8.898c-2.933 6.038-7.152 12.69-9.513 17.778-3.895 8.395-9.984 22.681-20.12 28.226-9.387 5.135-10.266 6.375-32.057 1.59-16.447-5.756-27.04-10.246-39.87-14.584-11.908-3.316-18.527-6.002-36.26-14.566-12.362-6.475-11.816-9.246-19.773-9.512-4.19-.14-5.19.096-6.914 1.246-.613.41-1.924 1.326-2.28 2.897-.358 1.57 4.787 7.28 9.259 10.123 4.535 2.883 9.639 5.998 13.586 7.955 2.612 1.418 4.814 2.279 7.437 3.545 4.69 2.263 9.299 4.035 19.8 8.96 2.312 1.086 7.307 3.12 11.192 4.335 3.885 1.213 8.638 2.988 10.563 3.941 1.925.954 7.775 2.977 13 4.496s12.975 3.85 17.223 5.18c5.325 1.668 10.082 2.42 15.318 2.42 7.594 0 6.033 7.655 6.902 10.75.38 9.435 3.76-1.55 9.09.138 3.718.932 5.01 3.396 7.547 3.23s6.319-2.961 9.023-6.554c5.41-7.185 6.112-10.021 7.897-12.82 2.113-3.312 3.182-4.312 5.5-7.66 3.405-3.638 7.199-8.437 9.525-12.99 2.034-5.208 5.48-14.163 7.69-17.963 3.752-6.775 6.804-7.055 11.748-22.3 5.158-15.904-30.611-72.78-26.45-91.767 8.324-37.972 17.116-52.045 27.61-60.181 15.907-24.588 20.396-28.186 32.05-60.383 2.166-6.268-3.256-15.982-3.946-16.49" style="fill:#a1a09d;stroke-width:.999999" transform="matrix(.26458 0 0 .26458 -45.667 -42.44)"/><path d="M283.213 582.608c-.851.364-4.45 5.115-5.24 5.411-2.15-.574-6.223-.107-11.66-.394-5.436-.286-10.988-.241-13.479-.053-3.403.258-8.987 1.048-11.641 1.317-2.773.282-11.699 1.217-20.467 2.28-7.519.612-20.606 2.812-25.923 3.442-5.14 1.333-19.158 5.796-18.524 6.92.965 1.71 2.378.313 3.11.313.949 0 5.98-1.898 10.134-2.859 8.91-2.06 24.883-4.243 31.99-4.993 9.505-.547 25.21-3.257 29.86-3.25 3.057.005 11.24-.394 15.457.263 2.541.395 7.407.667 7.45 2.703.035 1.595-.616 3.012-2.205 4.1-2.226 1.525-3.936 2.943-5.616 4.364-2.636 2.23-8.601 6.573-11.167 8.854-3.96 3.52-19.822 20.216-21.501 22.072-.45.498-2.531 2.88-2.531 2.88 1.259 3.685 2.861 1.74 6.095-1.855 4.443-4.028 13.918-14.835 20.422-20.332 6.344-5.343 9.999-9.412 14.749-12.595 4.055-2.718 6.136-4.837 7.66-.81 3.147 8.322 6.554 22.632 7.425 26.055.842 3.473 2.15 9.518 2.664 11.768 1.207 5.28 1.58 7.887 4.416 5.937l-6.318-27.375c-.933-2.985-2.86-10.032-3.559-12.238-.874-2.757-2.852-7.923-.35-8.697 1.132-.35 7.117 3.497 13.169 7.39 6.052 3.894 7.927 4.89 15.076 8.79s10.735 6.623 17.068 11.091c2.716-1.985 2.692-1.563-7.347-8.347-11.672-6.478-26.351-15.364-38.739-23.67.032.55 1.98-3.093 2.713-4.547.946-1.876.535-4.733-.716-4.465 0 0-1.623.166-2.475.53" style="fill:#396c90;fill-opacity:.5;stroke-width:.999999;filter:url(#b)" transform="matrix(.26458 0 0 .26458 -45.667 -42.44)"/><path d="M77.778 171.901c-.343-.686-.443-.984-.162-1.651.31-.411.784.11.801.611.036 1.032-.391 1.69-.639 1.04m-16.931-2.395c-.25-.25.437-1.174.91-1.174.508 0 .563.873.033.975-.223.043-.842.3-.943.199m62.95-60.09c-.23-1.157-.063-1.883.356-2.649.783-1.46.798-.89 2.908-2.052 2.027-1.376 3.01-3.69 4.177-5.355 1.018-1.424 2.261-3.604 2.594-7.022.245-3.24-1.074-.686-1.402-.439s-1.854 2.257-3.896 4.56c-1.841 2.076-3.16.677-3.324.69-.253.02 5.944-11.57 5.98-11.645.563-1.155 1.64-3.094 2.921-5.067s3.218-4.64 4.444-6.562c.92-1.399 2.885-4.014 3.234-4.626 1.49-2.618 2.288-4.067 3.122-4.972 0 0 1.927-2.774 3.658-3.443 2.507-.97.025 3.918-.395 6.415-.182 1.086.259 2.466.468 3.582.351 1.871-1.8 5.017-2.941 7.146-1.493 2.784-.612 4.5.025 5.042 1.757 1.492 2.18.971 1.228 4.019-.131.42-.553 1.764-.668 2.768-.172 1.497-.56 2.526-2.094 5.589-2.914 5.82-6.61 12.813-7.328 13.757-1.682 2.213.005 3.574-.292 6.798-.312 3.371-4.21 5.029-8.287 4.303-.606-2.055-2.608-3.854-3.452-7.655-.441-1.167-.808-2.024-1.037-3.181m-2.856-19.463c-.542-1.72-.408-2.008-.253-2.304.264-.504.524.206.991 1.033.18.317.424.856.592.827.674-.12-.018-.826-.273-2.098-.126-.63-.29-.805-.717-.76-.62.064-.647-.07-.802-4.044-.1-2.582-.312-3.44-.848-3.44-.492 0-.48.27.048 1.022.294.42.342.695.154.884-.15.15-.205.693-.122 1.207.194 1.197-.836 1.067-2.016-.254-.812-.909-1.561-.887-1.807.053-.256.978-.596.595-1.234-1.39-.081-.255-.387-.464-.68-.464-.45 0-.506-.121-.369-.807.154-.77.128-.8-.548-.63-.657.165-.698.128-.542-.493.128-.51.04-.74-.367-.958-.817-.438-1.099-.347-1.099.353 0 .859-.256 1.477-.613 1.477-.161 0-.546.318-.856.706-.373.468-.71.65-1.002.538-.547-.21-.577-1.207-.042-1.413.218-.084.397-.303.397-.488s-.179-.485-.397-.666c-.704-.584-1.27.17-1.084 1.443.166 1.136-.124.987-1.073-.552-.533-.862-.932.614-.431 1.593.386.756.145 2.02-.383 2.01-1.183-.023-1.57-4.59-.413-4.88.513-.13.578-.305.53-1.428-.046-1.03-.115-1.2-.358-.869-.166.227-.251.542-.19.7.124.325-.853 1.29-1.56 1.539-.576.203-.605-.292-.061-1.069.361-.516.358-.597-.034-.816-.297-.166-.34-.302-.137-.428.355-.22.403-1.91.06-2.121-.13-.081-.226-.554-.212-1.051.058-2.057-.905-2.415-7.579-2.812-7.936-.473-14.962.423-22.938 2.461-1.419.362-3.987.935-5.879 1.157-1.891.223-4.664.556-5.246.684-4.154.911-6.388.66-5.37-.675 1.636-2.145 5.267-4.46 8.884-5.691 1.091-.372 3.071-1.157 3.547-1.331.477-.175 1.48-.397 2.882-.869 1.497-.504 2.393-.867 3.051-1.159.659-.291 1.272-.569 1.938-.81s1.52-.663 2.51-.955c.992-.292 1.602-.72 2.332-.976.73-.257 2.58-1.142 4.164-1.738 1.327-.672 1.568-.955 2.668-1.588s3.405-2.111 3.616-2.524c.068-.132 5.133-.617 6.84-.673 1.01-.034 1.5-.157 2.409-.342s2.394.077 3.416-1.459c0-.074-.268-.186-.596-.249-.543-.104-.547-.117-.05-.15.301-.02.889-.394 1.307-.83.418-.437 1.029-.794 1.357-.794s.664-.11.747-.244.801-.207 1.597-.163c.99.055 1.541-.035 1.75-.286.166-.2.526-.365.8-.365.883 0 .526.767-.628 1.35-1.379.695-1.349.668-1.136 1.014.114.183.705.003 1.68-.511.829-.437 1.705-.794 1.947-.794.691-.001 1.29-.297 1.13-.558-.081-.13-.55-.237-1.042-.237s-.96-.105-1.04-.234c-.242-.392.602-.896 1.228-.733.356.093.773-.015 1.06-.275.352-.319.921-.414 2.22-.372 1.34.043 1.717-.024 1.624-.289-.083-.238-.546-.322-1.482-.272-.7.039-1.675.048-1.849-.11s.453-.484.806-.837c.247-.247.163-.317-.375-.317-.935 0-1.53.252-1.53.649 0 .335-.826 1.203-1.146 1.203-.452 0-.138-1.3.352-1.455.291-.093.53-.324.53-.515 0-.85 3.646-1.897 4.306-1.237.163.163.873.296 1.577.296 1.238 0 1.277.024 1.204.728-.068.649.01.728.717.728.856 0 3.025.915 3.036 1.28.004.123-.231.526-.522.896-.714.908-.671 1.213.308 2.192.686.686.77.886.463 1.104-.304.216-.292.24.063.127.605-.192 1.406.444 1.208.96-.186.485-1.842.165-2.592-.5-.23-.204-.678-.37-.996-.37s-1.212-.358-1.985-.795c-1.4-.79-3.613-1.114-3.613-.529 0 .146.002.354.005.463.002.11.635.16 1.405.111 1.034-.064 1.492.023 1.748.331.19.23.561.418.824.418s.846.312 1.3.693c.624.526 1.006.656 1.584.54.51-.102.872-.019 1.098.253.184.223.775.63 1.313.904s1.046.677 1.13.896c.084.22.85.75 1.702 1.18 1.674.846 2.557 1.62 1.847 1.62-.218 0-.539-.171-.712-.38-.365-.44-1.728-.795-2.12-.553-.15.093.137.57.655 1.087.507.507.922 1.04.922 1.186 0 .49-.85.61-1.105.156-.134-.241-.498-.438-.807-.438-.562 0-.562 0-.026.595.295.328.61.806.7 1.063.092.256.46.578.818.714.359.137.781.49.939.784.314.587.076.557-1.313-.164-.364-.188-.848-.344-1.075-.345-.228 0-.756-.358-1.174-.795-.757-.79-1.64-1.094-1.345-.463.085.182.223.521.307.755.163.45 1.714 1.296 2.378 1.296a.63.63 0 0 1 .542.38c.08.209.306.319.5.244.513-.197 1.454.85 1.454 1.616 0 .472-.11.611-.396.501-.566-.217-.522-.067.691 2.345.88 1.749 1.032 2.256.794 2.637-.162.26-.295.816-.295 1.236s-.178.914-.397 1.095c-.218.18-.397.493-.397.694 0 .581-.441.424-1.014-.363-.781-1.072-.939-.596-.43 1.3.699 2.611.553 3.91-.385 3.408-.661-.354-.681-.236-.136.819.597 1.154.324 1.75-.542 1.182-.357-.234-.6-.56-.747-.426-.201.184-.044 1.23.023 2.735.133 2.978-.168 4.198-.888 3.6-.27-.224-.386-1.604-.8-1.327-.284.19.332 1.493.364 1.64.135.612.372 2.587-.043 3.142-.667.893-.755 1.165-1.066 2.123-1.29 2.675-1.432.625-1.879-.36-.447-.986-1.151.332-1.88-1.296m1.998-7.545c-.016-.914-.037-.941-.274-.348-.142.355-.198.801-.124.992.244.637.415.36.398-.644m2.662-.595c0-.514-.452-.96-.71-.7-.081.08-.07.454.025.83.19.755.685.66.685-.13m-6.886-.865c-.609-1.168-1.243-1.844-1.827-1.14-.251.302-.168.45.43.765.93.489 1.652.865 1.397.375m-2.903-1.516c0-.291-.238-.768-.53-1.059-.56-.56-.71-1.323-.261-1.323.147 0 .47.239.72.53.25.29.7.529 1.003.529s.692.143.867.317c.247.247.318.192.318-.246a.77.77 0 0 0-.549-.739c-.47-.149-.524-.315-.38-1.166.168-.995-.634-2.929-1.214-2.929-.131 0-.239-.238-.239-.529 0-.294-.176-.53-.397-.53-.62 0-.47.585.432 1.679.913 1.107.762 1.8-.27 1.248-.455-.244-.558-.224-.558.107 0 .575-.459.504-.794-.123-.156-.29-.452-.529-.657-.529-.392 0-.087 1.405.428 1.971.126.139.229.451.229.696s.178.592.397.773c.218.18.397.672.397 1.09 0 .585.122.762.529.762q.53 0 .529-.53m-.8-3.05c-.183-.221-.262-.474-.175-.561.27-.271 1.049.422 1.209.817.257.635-.604.262-1.033-.255m7.309 2.89c-.095-.244-.231-.386-.304-.313s-.055.333.04.579c.093.245.23.386.303.313.072-.072.055-.333-.04-.578m2.898-1.186c.098-.158.402-.23.677-.157.666.174.691.212-.871-1.285q-1.367-1.31-.926-.595c.55.888.563 1.266.047 1.266-.539 0-.5.442.066.773.6.349.79.349 1.007-.002m-2.793-1.977c-.106-.2-.119-.34-.264-.25s-.265.276-.265.413.615.613.827.514c.215-.1-.132-.368-.298-.677m-10.497-.218c-.148-.25-.462-.693-.6-.693-.355 0-.254.646-.061.958.138.224.935.6 1.066.549.13-.053-.17-.418-.405-.814m15.893-.54c-.165-.43-.894-.773-1.133-.534-.167.166.71.91 1.071.91.114 0 .141-.169.062-.376m-7.512.016c0-.306-1.715-2.184-2.14-2.343a.85.85 0 0 1-.506-.736c0-.522-.66-1.015-.959-.717-.257.258.405 1.185 1.817 2.543 1.224 1.177 1.788 1.572 1.788 1.253m3.175-.657c0-.123-.238-.439-.53-.702-.29-.264-.53-.61-.53-.769s-.306-.647-.679-1.083c-.678-.794-.678-.794-.53-.093.305 1.438 2.269 3.73 2.269 2.647m-8.948-.627c-.19-.19-.313-.206-.313-.04 0 .353.547.76.724.583.075-.075-.238-.371-.41-.543m-3.76.123c-.006-.109-.184-.43-.397-.712-.397-.524-.518-.262-.228.492.161.421.64.59.624.22m16.147-.718c0-.236-1.643-1.994-1.864-1.994-.121 0 .09.476.472 1.059.572.873 1.392 1.424 1.392.935m-13.014-.605c-.048-.254-.364-.502-.701-.55-.546-.078-.581-.027-.319.463.362.675 1.145.742 1.02.087m16.365-1.084c.004-.705.088-1.413.187-1.572.182-.295-.88-1.479-1.115-1.243-.072.071.015.402.193.734.23.429.252.921.077 1.699-.167.743-.154 1.187.039 1.38.498.498.611.316.62-.998m-18.696.108c0-.615-.42-1.14-.692-.867-.202.201.45 1.746.713 1.746.13 0-.021-.524-.021-.88m7.54.133c0-.556-1.291-2.118-1.757-2.126a.69.69 0 0 1-.587-.404c-.084-.218-.276-.397-.426-.397s-.273.179-.273.397.114.397.252.397c.348 0 1.833 1.615 2.02 2.197.17.524.771.474.771-.064m-4.596-.48c-.251-.465-1.513-1.653-1.756-1.653-.315 0-.09 1.193.308 1.633.595.657 1.8.675 1.448.02m1.431-.264c-.099-.4-.306-.847-.461-.992-.197-.185-.233-.066-.118.396.091.364.167.81.169.993s.135.33.297.33c.187 0 .228-.263.113-.727m-6.024.149c-.163-.491-.733-.572-.733-.105 0 .23.586.667.816.667s-.025-.39-.083-.562m17.931-.727c-.096-.155-.3-.282-.455-.282-.176 0-.156.152.053.403.363.437.687.34.402-.121m-.25-5.281c-.525-.581-1.414-.879-1.621-.543-.143.23 1.767 1.35 1.97 1.153.059-.058-.098-.333-.349-.61m-24.447-6.518c.326-.718-.296-1.932-1.127-2.197-.28-.09-.258.016.083.4.962 1.087.075 2.324-1.084 1.512-.659-.461-.77-.077-.154.538.672.673 1.923.534 2.281-.253m19.688-.279c-.23-.395-.577-.63-.889-.63-.727.008-.727.008-.103.528.754.628 1.211.675.992.102m4.595-.177c-.008-.395-2.06-1.394-2.324-1.13-.268.269 1.214 1.461 1.816 1.461.283 0 .511-.149.508-.33m-2.275-2.193c.224-.582-.807-.892-1.877-.564-.75.23-.996.183-1.673-.318-.437-.323-.921-.508-1.076-.413-.512.317.154.61 3.203 1.412 1.28.336 1.248.338 1.423-.117m-6.317-1.974c.095-.154-.174-.264-.646-.264-.445 0-.81.119-.81.264s.291.265.646.265.72-.12.81-.265m-10.02-2.612c.286-.344-.538-.298-1.643-.298-1.306 0-1.376.376-.111.603.363.065.676.135.695.155s.879-.242 1.06-.46m5.784-.015c-.234-.04-.284-.019-.511-.019s-.413.12-.413.265.112.265.25.265c.136 0 1.126-.435.957-.463zm7.18-1.227c-.946-.92-1.733-1.104-1.95-.455-.058.177.195.397.563.489.369.092.808.335.978.539s.55.37.845.37c.459 0 .395-.137-.435-.943m1.31-.312c.258-.473-.326-.4-.707-.868-.494-.21-.77-.13-.77.157 0 .504.63.477 1.477.711m-5.38-.86c.45 0 .728-.09.619-.2-.238-.236-2.536-.283-2.536-.05 0 .325.379.527.735.39.202-.078.734-.14 1.183-.14m.058 36.068c-.516-1.167-.59-1.55-.328-1.716.564-.357.868-.255 1.64.55.72.752.531 1.84.041 1.345-.74-.748-.628-.144-.218.662.557 1.094-.455.698-1.135-.84m-6.206-3.26c-.227-.754-.228-2.117-.001-2.117.452 0 .599.719.31 1.512-.149.405-.287.677-.31.605zm-2.384-.91c0-.398.475-.82.686-.61.184.184-.181.99-.45.99-.13 0-.236-.171-.236-.38m22.543-12.34c-.175-.174-.652-1.349-.652-1.465 0-.315.77-.057.776.333.008.54.246 1.502-.124 1.133m-.783-4.21c-.431-.69-.417-1.079.033-.906.519.199 1.149 1.596.716 1.596-.18 0-.569-.4-.75-.69m-5.59-13.472c-.297-.189-.272-.282.133-.494.582-.306 1.809.062 1.558.467-.202.327-1.192.342-1.69.027m-22.779-.428c.184-.222 1.05-.613 1.117-.547.184.184-.454 1.182-.773 1.182-.176 0-.553-.384-.344-.635m4.12-1.94c-.2-.324 1.907-1.954 2.25-1.742.175.108-.084.526-.664 1.073-.97.915-1.339 1.07-1.587.669m2.754-.832c0-.44.176-.529 1.043-.529 1.262 0 1.63.432.675.794-1.114.424-1.718.33-1.718-.265m4.498-3.45c0-.202-.238-.252-.676-.142-.619.156-.65.124-.38-.383.538-1.004 2.526-.828 2.33.206-.1.515-1.274.81-1.274.32m3.616-.166c-.649-.648.476-.847 1.294-.229.488.37.473.39-.302.397-.449.005-.895-.07-.992-.168" style="fill:#63605d;stroke-width:.264583" transform="translate(-45.911 -42.617)"/><path d="M126.897 153.301c.485-.905.27-4.02-.277-4.02-.13 0-.272.392-.4.728-.32.843-.652.408-1.313-.015-.662-.423-.697-.939-1.725-1.883s-2.576-4.139-3.102-5.77-.732-2.069-1.467-4.553-2.627-10.468-1.23-16.162c.51-2.334 2.005-5.89 2.688-7.655.682-1.765.781-2.618 2.24-4.056s5.002-2.847 6.642-1.784 2.525 1.512 3.625 2.346c1.1.833 1.631 2.194 3.478 4.47 1.846 2.277.896 16.205-1.14 23.596-.282 1.018-.955 3.28-1.324 4.823-.588 2.457-1.913 5.467-3.21 7.785-1.296 2.317-2.564 4.388-3.038 4.078-.57-.153-.621-1.277-.447-1.928m-50.29-16.263c-.653.35-1.908-2.36-3.138-5.608-1.995-5.267-1.685-8.472-1.335-11.443s1.338-4.835 2.271-6.77 2.245-3.8 3.38-4.907 1.552-1.447 2.539-2.239 3.74-2.185 4.729-2.71c.311-.166 1.176-.48 1.747-.332.577.15-.354 1.554-1.134 3.343-1.989 4.559-5.082 13.187-5.855 17.196-.3 1.555-.834 4.08-1.186 5.61-.353 1.53-.72 3.375-.814 4.1-.638 2.298-.607 2.758-1.204 3.76m46.109-50.595c-.007-.807.052-.954.248-.618.162.277.165.668.009 1.058-.217.54-.25.486-.257-.44zm2.024.132c-.196-.437-.937-2.492-1.18-3.276-.11-.35-.045-.463.215-.378.603.196 1.335 2.026 1.235 3.085-.057.603-.158.817-.27.57m1.286-2.537c-.194-.505.044-.971.388-.759.314.195.323 1.18.01 1.18-.13 0-.31-.19-.398-.421m-4.742-.545c-.099-.1-.18-.468-.18-.82 0-.733.608-.692.752.05.101.523-.29 1.051-.572.77m4.733-3.154c-.097-.388-.117-.765-.044-.837.072-.073.211.185.309.572.097.388.117.765.045.838s-.212-.185-.31-.573m-3.262-1.433c-.44-.704-.418-.771.2-.61.294.077.53.362.53.637 0 .647-.317.635-.73-.027m3.817-1.503a.73.73 0 0 1-.177-.45c0-.165.123-.15.313.04.173.172.252.375.177.45s-.216.057-.313-.04m-6.119-2.712c-.458-.887-.496-1.08-.21-1.078.334.002 1.11 1.563.856 1.72-.13.081-.421-.208-.646-.642m-2.736.19c-.586-.586-.39-1.153.212-.609.543.492.692.926.317.926-.116 0-.354-.143-.53-.317M55.91 73.422s6.556-2.384 8.921-3.051c.994-.28 1.933-.642 3.121-.92 1.189-.28 1.472-.248 2.517-.633 2.015-.68 3.607-.98 4.73-1.3 1.607-.464 3.441-.828 5.093-1.335 1.65-.508 2.618-.763 4.321-1.33 1.704-.567 2.896-.903 3.787-1.219a8.5 8.5 0 0 0 2.502-1.423c.756-.615 1.074-1.523 1.701-2.2s.911-1.618 1.712-2.028 2.4-.627 2.948-.966c.803-.497.64-.56 1.075-.328.406.217.677-.589.983-.843.495-.41 3.41-.379 4.205.047 1.436.768 2.392 3.464 1.693 4.77-.446.835.11 1.443 2.052 2.245 2.338.966 2.676 1.048 2.88 2.032s.388 2.232.263 2.498c-.516 1.097-1.467 1.734-3.58 1.962-.535.057-2.585.497-3.24.577-1.038.126-1.796.394-2.487-.043-.742-.469-1.25-.371-2.287-.556-1.037-.184-2.231-.19-3.956-.32-2.414-.113-3.079-.185-4.064-.119a71 71 0 0 1-3.658.164c-1.846.17-2.88.262-4.938.546-2.053.27-5.763 1.047-8.888 1.754-4.297.972-13.208 2.402-15.433 2.53 0 0-.924.11-1.376-.025s-.597-.486-.597-.486m47.143-13.717c1.294-.906.361-3.557-1.251-3.557-1.143 0-1.865.691-1.865 1.784 0 1.793 1.704 2.762 3.116 1.773m-1.617-1.352c-.322-.322-.182-.882.22-.882.221 0 .398.235.398.53 0 .527-.282.688-.618.352m4.725 12.977c-.236-.235-.38-.476-.321-.535.195-.196.933.205 1.08.587.194.506-.23.477-.76-.052m12.193-1.577c-.089-.23-.16-.853-.16-1.383 0-.965 0-.965.663-.301.598.598.63.735.33 1.381-.38.82-.604.9-.833.303m4.27-1.157c-.2-.285-.98-1.01-1.735-1.61-1.475-1.175-1.688-1.577-.833-1.577.873 0 2.103 1.094 2.75 2.446.604 1.263.495 1.707-.183.74m-5.286-2.923q-.33-.53-1.193-.529c-1.511 0-.925-.458.632-.494 1.814-.042 2.44.331 1.779 1.061-.567.626-.808.619-1.218-.038m2.178-1.587c0-.146.186-.265.413-.265s.338.12.249.265-.276.264-.413.264-.249-.119-.249-.264m5.794-.587c-.887-.648-1.053-.873-.697-.946.673-.137 2.429.79 2.53 1.334.129.702-.534.562-1.833-.388m.842-3.178c-.546-.585-.713-.94-.526-1.125.186-.184.518.025 1.043.657 1.273 1.53.842 1.921-.517.468m-9.15-1.527c-.208-.337.405-.337.927 0 .322.209.288.257-.183.26-.32.003-.654-.114-.743-.26m3.452-1.841c-1.363-.9.026-1.066 2.15-.258.585.222.653.326.343.523-.628.397-1.654.287-2.493-.265m5.704-.11c-.165-.2-.23-.548-.144-.773.219-.57-.655-.98-2.087-.98-.765 0-1.23-.13-1.321-.37-.222-.579 1.4-.728 2.202-.202.364.238.9.557 1.19.709.291.152.53.43.53.62s.206.495.458.68c.253.184.382.413.287.507-.283.284-.793.196-1.115-.19m-8.23-1.488c-.308-.2-.23-.258.347-.26.429-.003.674.107.58.26-.203.328-.418.328-.926 0m-11.52-.547c-.31-.502.143-.626.603-.165.413.412.414.447.01.447-.242 0-.517-.127-.613-.282zm8.32-.145c-.307-.37-.287-.415.144-.331.275.053.549.245.61.427.156.472-.334.41-.754-.096m5.053-.314c0-.45 1.64-1.164 1.953-.85.374.373-.059.75-1.102.958-.527.105-.851.064-.851-.108m-12.053-.605c-.338-.546.287-.786 1.208-.465.78.272.83.338.38.514-.759.297-1.386.277-1.588-.049m2.528-.506c0-.332.28-.332.793 0 .321.207.283.257-.198.26-.327.003-.595-.115-.595-.26m3.369-.19c-.403-.06-.674-.206-.602-.322.16-.26 1.42-.042 1.618.279.079.128.047.215-.07.193s-.544-.09-.946-.15m1.98-.12c.064-.194.447-.39.851-.438.52-.061.702.017.621.265-.063.193-.447.39-.851.437-.52.061-.702-.017-.621-.264m-3.497-1.542c.523-.338 1.4-.338 1.19 0-.09.145-.484.263-.875.26-.557-.003-.626-.06-.315-.26m5.291-1.323c-.295-.19-.142-.258.596-.26.545-.003.992.114.992.26 0 .337-1.066.337-1.588 0" style="fill:#261c16;stroke-width:.264583" transform="translate(-45.911 -42.617)"/><path d="M45.911 159.565c.154-.468.916-.787 1.515-.608.287.085.122.78-.176.78-.13 0-.918.293-1.292-.055zM87.336 165.095c-.272-.438-.013-.844.43-.761.457.085.527 1.063.323 1.212-.105.076-.6-.203-.753-.45" style="fill:#63605d;stroke-width:.264583" transform="translate(-45.911 -42.617)"/></g><path d="M123.282 86.919c.381-.573.41.436.595 1.323.119.565.875 1.679.298 1.687-.484.006-.82-.845-.893-1.323-.103-.683-.515-.912 0-1.687" style="fill:#a1a09d;fill-opacity:1;stroke:none;stroke-width:.264583px;stroke-linecap:butt;stroke-linejoin:miter;stroke-opacity:1" transform="translate(-45.667 -42.44)"/><path d="M110.881 44.437c.271.213-.547.484-1.408.49-.913.006-1.834.518-2.25.699-.529.23-2.468 2.291-2.35.99.097-1.05 2.15-1.769 2.604-1.937.647-.239 2.54-.92 3.404-.242M104.982 48.116c.822.307-2.204.266-2.959 1.317-.413.575-1.144 1.632-1.453.362-.248-1.024.6-1.12 1.042-1.32 2.287-1.034 2.983-.504 3.37-.36M101.196 53.194c-.345.28-.566.41-.659-.3-.063-.478.822-.689 1.306-.69.41-.001.36-.134.687.012.218.527-.322.155-1.334.978" style="display:inline;opacity:1;fill:#63605d;fill-opacity:1;stroke:none;stroke-width:.264583px;stroke-linecap:butt;stroke-linejoin:miter;stroke-opacity:1" transform="translate(-45.667 -42.44)"/><path d="M105.204 73.66c-.369-.25-.557-.424.096-.718.44-.198.897.588 1.039 1.05.12.394.232.308.186.662-.442.36-.241-.264-1.32-.995" style="display:inline;opacity:1;fill:#a1a09d;fill-opacity:1;stroke:none;stroke-width:.264583px;stroke-linecap:butt;stroke-linejoin:miter;stroke-opacity:1" transform="translate(-45.667 -42.44)"/><path d="M112.639 81.656c-.179-.408-.245-.655.464-.556.478.067.445.976.318 1.443-.108.396.422.972-.054.775-.66-.397-.204-.468-.728-1.662" style="display:inline;opacity:1;fill:#63605d;fill-opacity:1;stroke:none;stroke-width:.264583px;stroke-linecap:butt;stroke-linejoin:miter;stroke-opacity:1" transform="translate(-45.667 -42.44)"/></g><g style="display:inline"><path d="M122.472 86.267c-.007-.807.052-.953.248-.618.161.277.165.668.009 1.058-.217.541-.25.486-.257-.44zm2.024.133c-.196-.438-.937-2.493-1.18-3.277-.11-.35-.045-.462.215-.378.603.196 1.335 2.026 1.235 3.086-.057.602-.159.816-.27.569m1.286-2.538c-.194-.505.044-.97.387-.758.315.194.323 1.18.01 1.18-.13 0-.309-.19-.397-.422m-4.742-.545c-.1-.1-.18-.468-.18-.82 0-.732.608-.692.752.05.05.262.258 1.25.138 1.412s-.57-.501-.71-.642m4.733-3.154c-.097-.388-.117-.764-.045-.837s.212.185.31.573c.097.387.117.764.044.837-.072.073-.212-.185-.309-.573m-5.178-.775c0-.218.115-.397.256-.397s.445 1.302.361 1.52c-.083.218-.438-.609-.513-.726a.72.72 0 0 1-.104-.397m1.916-.658c-.44-.704-.418-.77.2-.609.293.077.53.36.53.637 0 .646-.317.635-.73-.028m3.816-1.502a.73.73 0 0 1-.176-.45c0-.166.123-.15.313.04.172.172.486.561.41.636-.075.075-.45-.13-.547-.226M107.63 76.08c.018-.33-.604-1.554-.255-1.488.066.012.57.32.57.612 0 .15.067.707.238 1.013s.313.574.199.574c-.325 0-.78-.206-.752-.711m12.58-1.566c-.46-.886-.497-1.08-.21-1.078.333.003 1.109 1.564.855 1.72-.13.081-.421-.208-.646-.642m-2.737.19c-.587-.586-.39-1.152.211-.608.544.492.927 1.09.552 1.09-.117 0-.589-.307-.763-.482m6.833-1.65c-.248-.578-1.24-2.352-1.708-2.046-.255.166.428.82.31 1.17-.287.855-1.725-1.256-1.72-2.528 0-.412-.268-1.029-.605-1.388-.334-.356-.53-.724-.437-.818.272-.272.976.446 1.376 1.404.203.485.685 1.025 1.072 1.202.614.279 2.763 3.147 2.763 3.686 0 .727-.619.326-1.05-.682m-18.39-1.9c-.235-.236-.38-.477-.32-.536.195-.195 1.588.44 1.734.822.097.253.521.843.21.774s-1.359-.796-1.623-1.06m20.002-.003c-.473-.331-.534-.48-.263-.648.352-.217 1.29.404 1.29.855 0 .34-.346.27-1.027-.207m-7.808-1.575c-.089-.23-.161-.852-.161-1.383 0-.965 0-.965.664-.3.597.597.63.735.33 1.38-.38.82-.604.901-.833.303m9.893.154c0-.146.112-.265.25-.265.136 0 .322.12.412.265s.328.756.101.756c-.226 0-.763-.61-.763-.756m-3.473-1.273c-.208-.337.835.142 1.356.48.323.208.537.67-.81.177-.3-.11-.456-.512-.546-.657m-2.15-.038c-.2-.284-.98-1.009-1.736-1.61-1.474-1.174-1.687-1.577-.832-1.577.872 0 2.102 1.094 2.75 2.447.604 1.262.494 1.707-.183.74m1.72-1.361c-.79-.294-.629-1.014.087-.602.601.345 2.002.266 1.522-.03-.148-.092-1.145-.62-1.145-.85 0-.692-1.5-1.931-2.338-1.931-.861 0-1.294-.428-2.141-2.117-.328-.655-.914-1.454-1.3-1.777-.446-.37-.563-.589-.321-.595.457-.011 1.866 1.285 1.866 1.717 0 .168.294.444.656.604.732.324.743.642.519.66-1.28.097.062.647.92.837.583.262 1.602.997 2.265 1.632s1.332 1.106 1.466 1.155c.41.152 1.318.967 1.318 1.257-.001.277-2.65.309-3.373.04m-8.69-.806c-.501-.565-.05-.33.092-.255.328.17.557.432.595.567.107.384-.127.319-.687-.312m1.684-.755q-.33-.53-1.193-.53c-1.511 0-.925-.458.632-.494 1.814-.041 2.44.332 1.778 1.062-.566.626-.807.618-1.217-.038m5.419.191c-.658-.3-.81-.985-.22-.985.656 0 1.423.754 1.423 1.118 0 .518-.53.174-1.203-.133m-9.158-.324c-.092-.241 0-.397.237-.397.213 0 .34.238.458.42.187.29.198.585.068.585s-.679-.39-.763-.608m.162-1.704c-.327-.274-.595-.686-.595-.918 0-.303-.255-.42-.91-.42-.868 0-1.444-.38-1.099-.726.143-.143 1.074-.168 2.657-.074 1.114.067 3.406 1.858 2.377 1.858-.425 0-1.173-.597-1.173-.935 0-.214-.238-.388-.53-.388-.352 0-1.024-.154-.727.364.145.252.313.694.454.694.14 0 .383.239.538.53.373.695-.166.703-.992.015m5.755.25c0-.146.185-.265.412-.265s.752.423.662.568c-.09.146-.688-.04-.825-.04s-.25-.118-.25-.264m5.794-.587c-.887-.65-1.053-.874-.697-.946.672-.138 2.428.789 2.529 1.334.13.702-.533.561-1.832-.388m-5.915-.983c-.18-.292-.177-1.022.067-.777.252.251.923 1.164.638 1.164-.137 0-.621-.252-.705-.387m6.757-2.196c-.547-.585-.713-.94-.526-1.125.186-.183.518.025 1.043.657 1.273 1.53.842 1.921-.517.468m-14.309.348c0-.134.14-.29.312-.347.58-.194-.654-1.577-1.376-1.577-.57 0-.03.677.082 1.108.224.854-.342.606-.653-.287-.217-.624-.406-.784-.8-.68-.38.099-.477.03-.364-.264.091-.239-.184-.733-.69-1.237-.842-.84-.842-.84-.132-.923.766-.09.88-.302.416-.767-.601-.6.039-.906 1.513-.722.971.121 1.556.076 1.817-.142.213-.176.526-.273.696-.217.491.164-1.11 1.358-1.988 1.138-1.35-.338-1.126.222.503.995.673.32-.212.692-.94.578-.671-.106-1.521-.272-.248.574.359.239.685.492.937.084.096-.156.356-.213.578-.128a.83.83 0 0 0 .744-.127c.206-.172 1.101-.044 1.195.107.085.137-.844.184-1.207.275-.961.241-.101 1.478 1.028 1.478.28 0 1.069-.88.957-1.317-.112-.434.258-1.117.955-1.494.697-.378 1.72-.45 2.916.338 2.261 1.492 2.179 1.705-.922.525-1.301.029-1.804.158-2.215.569-.644.643-.414 1.246.323.851.434-.232.815-.12 1 .137s.175.66-.174 1.009c-.516.515-.563.519-1.052.076-.336-.304-.573-.366-.687-.18-.097.155-.445.214-.774.132-.373-.094-.728.005-.942.263-.38.458-.808.549-.808.172m9.558-.66c-.331-.134-.697-.727-.41-1.015.085-.084.74.151 1.456.523 1.303.676 1.584 1.602.61 1.035-.685-.4-1.063-.304-1.656-.544m-4.399-1.214c-.208-.337.405-.337.926 0 .323.208.289.257-.182.26-.32.002-.654-.115-.744-.26m3.452-1.842c-1.363-.899.026-1.066 2.15-.258.585.223.653.327.342.523-.627.397-1.653.288-2.492-.265m5.704-.11c-.166-.2-.23-.547-.144-.773.219-.57-.655-.98-2.087-.98-.766 0-1.23-.13-1.321-.37-.223-.578 1.399-.728 2.202-.202.363.239.9.558 1.19.71.291.15.53.43.53.62 0 .188.206.494.458.679.253.184.382.413.287.508-.284.283-.793.196-1.115-.191m-13.786-.694c0-.146.238-.265.53-.265.29 0 1.09.12 1.09.265s-.8.264-1.09.264c-.292 0-.53-.119-.53-.264m5.556-.794c-.308-.2-.23-.257.347-.26.429-.003.674.107.58.26-.204.328-.418.328-.927 0m-11.52-.547c-.31-.502.142-.626.603-.165.413.413.413.447.01.447-.242 0-.517-.127-.613-.282zm8.32-.145c-.307-.37-.287-.414.144-.33.275.052.549.245.61.427.156.472-.334.409-.754-.097m5.052-.314c0-.45 1.641-1.163 1.954-.85.374.373-.059.75-1.102.958-.527.105-.852.064-.852-.108m-12.052-.605c-.338-.546.287-.786 1.208-.465.78.272.83.338.38.514-.759.297-1.387.278-1.588-.049m2.527-.506c0-.331.281-.331.794 0 .321.208.283.258-.198.26-.328.003-.596-.114-.596-.26m3.37-.19c-.403-.06-.674-.205-.602-.321.16-.26 1.42-.043 1.618.278.079.128.047.215-.07.194-.118-.022-.544-.09-.947-.15m1.98-.12c.063-.193.446-.39.851-.438.519-.06.702.017.62.265-.063.193-.446.39-.85.437-.52.061-.702-.017-.621-.264m-3.497-1.542c.522-.338 1.797-.408 1.588-.07-.09.146-.929.52-1.32.518-.557-.003-.579-.247-.268-.448m5.291-1.323c-.295-.19-.143-.257.596-.26.545-.002.992.115.992.26 0 .337-1.066.337-1.588 0m3.704-1.852c0-.145.187-.321.397-.264.367.099.844.499.844.645 0 .145-.427 0-.844-.116-.226-.058-.397-.12-.397-.265m-2.976-1.344c-.675-.207-1.693-.967-1.074-.967.374 0 1.811.208 2.072.427 1.156.97.946.982.066.81-.447-.035-.34-.048-1.064-.27" style="display:inline;opacity:1;fill:#e6e6e6;stroke-width:.264583" transform="translate(-45.667 -42.44)"/><path d="M118.59 76.239c-.164.294.433.306.82.958.37.626.476 1.053.748.866.405-.279-.127-1.003-.468-1.357-.391-.405-.979-.682-1.1-.467" style="fill:#ececec;fill-opacity:1;stroke:none;stroke-width:.264583px;stroke-linecap:butt;stroke-linejoin:miter;stroke-opacity:1" transform="translate(-45.667 -42.44)"/><path d="M112.206 67.11c-.165.294.432.307.819.959.37.625 1.482.49 1.754.304.405-.279-.922-.231-1.334-.795-.331-.455-1.118-.683-1.239-.468M116.018 60.96c-.165.294.853.166 1.24.818.37.626.85 1.59 1.122 1.403.405-.278-.5-1.54-.842-1.894-.391-.406-1.4-.542-1.52-.328M122.217 50.117c-.165.295.153.21.57.843.24.361.705.888.977.701.406-.278-.458-.66-.72-.994-.35-.442-.706-.765-.827-.55" style="display:inline;fill:#ececec;fill-opacity:1;stroke:none;stroke-width:.264583px;stroke-linecap:butt;stroke-linejoin:miter;stroke-opacity:1" transform="translate(-45.667 -42.44)"/></g><g style="display:inline"><g style="display:inline" transform="translate(-45.667 -42.44)"><ellipse cx="101.379" cy="58.091" rx="2.081" ry="2.245" style="fill:#d7e3a1;fill-opacity:1;stroke-width:1"/></g><path d="M98.127 55.72c.323-.147.9-.314.9-.314.62-.174 3.46-.114 4.255.311 1.435.769 2.392 3.464 1.693 4.771-2.134 1.186-2.905.789-5.677.64-2.427-2.127-6.201-3.309-1.17-5.408m4.682 3.81c1.294-.907.361-3.557-1.251-3.557-1.143 0-1.865.69-1.865 1.784 0 1.792 1.704 2.762 3.116 1.773m-1.617-1.352c-.322-.323-.182-.882.22-.882.221 0 .397.235.397.529 0 .527-.282.688-.617.353" style="display:inline;opacity:1;fill:#333;stroke-width:.264583" transform="translate(-45.667 -42.44)"/></g></svg>