<svg xmlns="http://www.w3.org/2000/svg" width="1217.299" height="235.486" viewBox="0 0 322.077 62.306"><defs><path id="a" d="M17.387 12.851h58.85v13.678h-58.85z"/></defs><g aria-label="Blaufußtölpel" transform="translate(-99.396 -81.811) scale(5.59085)"><path shape-rendering="geometricPrecision" d="M23.525 20.634q0 .349-.148.688-.148.338-.445.603-.296.265-.751.423-.445.159-1.037.159h-3.366v-.042h.953V15.49h-.953v-.042h2.868q.466 0 .89.106.423.095.75.296.329.201.52.508.19.307.19.72 0 .36-.17.667-.158.296-.423.518-.264.212-.614.339-.338.127-.709.137.53.011.974.138.455.127.783.37.328.244.508.593.18.35.18.794zM21.8 17.12q0-.444-.064-.751-.052-.307-.211-.498-.148-.2-.402-.285-.254-.096-.635-.096h-.392v3.228h.73q.286 0 .466-.074.19-.085.296-.264.117-.18.159-.487.053-.318.053-.773zm.381 3.577q0-.603-.085-.973-.084-.381-.264-.593-.17-.212-.455-.286-.276-.084-.657-.084h-.624v3.704h.762q.72 0 1.016-.392.307-.402.307-1.376zM24.161 22.507v-.042h.646V14.77h-.646v-.043h1.704v7.737h.656v.042zM31.23 22.179q-.052.148-.264.286-.212.127-.518.127-.34 0-.604-.19-.254-.191-.307-.498-.105.338-.391.518-.286.17-.71.17-.264 0-.528-.064-.254-.063-.466-.2-.212-.138-.35-.35-.126-.212-.126-.498 0-.391.158-.645.17-.254.392-.402.233-.148.466-.212.243-.074.402-.085.222-.02.413-.042.2-.021.349-.053.159-.032.243-.085.095-.052.095-.137v-.804q0-.635-.2-.858-.191-.222-.477-.222-.307 0-.487.127-.17.116-.17.36 0 .137.064.243.064.096.064.233 0 .148-.116.275-.117.117-.381.117-.244 0-.36-.16-.106-.158-.106-.338 0-.148.095-.307.106-.158.296-.285.19-.138.466-.223.286-.084.635-.084.804 0 1.27.465.466.455.466 1.45v2.276q0 .36.275.36.138 0 .243-.096.106-.095.127-.18zm-1.746-2.223q-.18.117-.423.149-.243.02-.487.074-.127.02-.233.095-.105.063-.18.212-.074.148-.116.391-.042.233-.042.603 0 .34.053.55.053.202.137.308.085.106.19.137.117.032.244.032.392 0 .625-.222.232-.222.232-.519z"/><path d="M34.898 22.507v-.74q-.148.454-.497.645-.339.18-.71.18-.804 0-1.27-.413-.465-.423-.465-1.27V18.04h-.645v-.042h1.703v3.481q0 .561.202.815.2.254.476.254.518 0 .804-.254.286-.254.402-.624v-3.63h-.656v-.042h1.704v4.466h.656v.042z"/><path shape-rendering="geometricPrecision" d="M40.514 15.416q0 .212-.149.381-.137.159-.36.159-.253 0-.38-.106-.117-.116-.117-.286 0-.095.021-.148.021-.063.053-.106.032-.053.053-.116.021-.064.021-.18 0-.18-.074-.243-.063-.074-.233-.074-.222 0-.38.264-.16.265-.16.984V18h.943v.042h-.942v4.424h.645v.042h-2.35v-.042h.646V18.04h-.793v-.042h.793v-.254q0-.868.138-1.46.137-.604.38-.964.244-.37.572-.53.34-.158.73-.158.36 0 .646.212.297.2.297.571z"/><path shape-rendering="geometricPrecision" d="M43.663 22.507v-.74q-.149.454-.498.645-.339.18-.709.18-.804 0-1.27-.413-.466-.423-.466-1.27V18.04h-.645v-.042h1.704v3.481q0 .561.2.815.202.254.477.254.519 0 .804-.254.286-.254.403-.624v-3.63h-.657v-.042h1.704v4.466h.656v.042zM50.844 20.464q0 .561-.17.964-.158.402-.401.666-.244.254-.54.381-.286.117-.54.117-.518 0-.825-.275-.307-.276-.307-.614 0-.18.095-.275.095-.106.243-.106.149 0 .254.084.106.074.106.223 0 .095-.053.169-.042.063-.042.201 0 .265.148.413.148.148.381.148.159 0 .275-.064.117-.074.19-.285.075-.212.107-.604.042-.402.042-1.047 0-1.291-.254-1.831t-.815-.54q-.19 0-.38.116l-.022-.031q.275-.159.444-.339.17-.18.265-.413.095-.243.127-.56.042-.329.042-.773 0-.847-.211-1.175-.201-.339-.73-.339-.392 0-.657.276-.254.275-.254.994v6.52h.656v.042h-2.36v-.042h.646v-4.72q0-.847.159-1.43.158-.592.423-.962.275-.381.635-.55.36-.17.751-.17.847 0 1.376.402.53.402.53 1.175 0 .328-.128.624-.116.297-.338.55-.212.244-.498.445-.285.19-.603.318.117-.021.18-.021.074-.011.17-.011.476 0 .825.222.36.212.593.561.232.339.349.752.116.412.116.814zM54.314 21.67q-.106.424-.381.678-.265.254-.741.254-.519 0-.752-.254-.222-.254-.222-.772V18.04h-.804v-.042h.804v-1.122q.339-.032.625-.212.296-.19.38-.423h.043v1.757h.952v.042h-.952v4.096q0 .148.085.232.084.075.222.075.212 0 .402-.202.201-.2.307-.582zM59.327 20.253q0 .487-.18.92-.17.424-.466.741-.296.318-.698.508-.402.18-.868.18-.455 0-.857-.18-.402-.19-.699-.508-.296-.317-.476-.74-.17-.434-.17-.921 0-.487.17-.91.18-.434.476-.752.297-.317.699-.497.402-.19.857-.19.466 0 .868.19.402.18.698.497.297.318.466.752.18.423.18.91zm-1.111 0q0-.836-.096-1.334-.095-.497-.317-.73-.138-.138-.307-.19-.17-.053-.381-.053-.212 0-.381.053-.159.052-.296.19-.223.233-.318.73-.095.498-.095 1.334 0 .476.021.815.021.338.074.582.053.233.127.391.085.16.19.276.138.137.297.19.17.053.38.053.213 0 .382-.053.17-.053.307-.19.116-.117.19-.276.074-.158.127-.391.053-.244.074-.582.022-.339.022-.815zm-1.482-4.032q0 .243-.159.402-.148.158-.37.158t-.381-.158q-.159-.159-.159-.402 0-.244.159-.403.159-.158.38-.158.223 0 .371.158.159.16.159.403zm1.83 0q0 .243-.158.402-.148.158-.37.158-.223 0-.381-.158-.16-.159-.16-.402 0-.244.16-.403.158-.158.38-.158.223 0 .371.158.159.16.159.403zM59.942 22.507v-.042h.645V14.77h-.645v-.043h1.704v7.737h.656v.042zM67.477 20.285q0 .433-.18.857-.17.413-.476.74-.297.318-.699.52-.402.2-.857.2-.593 0-.974-.434v3.567h.646v.042h-2.35v-.042h.646V18.04h-.646v-.042h1.704v.338q.381-.434.974-.434.455 0 .857.212.402.201.699.54.307.338.476.762.18.423.18.868zm-1.111 0q0-.826-.096-1.345-.095-.529-.317-.751-.138-.138-.307-.19-.17-.053-.38-.053-.287 0-.54.116-.255.116-.435.35v3.566q.117.296.392.444.275.138.582.138.212 0 .381-.053.17-.042.307-.19.222-.223.317-.72.096-.498.096-1.312zM69.43 19.988v.265q0 .476.02.815.032.338.075.582.053.233.137.391.085.16.19.276.138.137.297.19.17.053.381.053.572 0 1.037-.265.466-.275.741-.72l.032.022q-.307.455-.783.73-.466.275-1.027.275-.455 0-.857-.18-.402-.19-.699-.508-.296-.317-.476-.74-.17-.434-.17-.921 0-.487.17-.91.18-.434.476-.752.297-.317.699-.497.402-.19.857-.19.498 0 .857.211.36.212.593.519.243.306.36.666.116.36.116.656v.032zm2.031-.042q-.031-1.365-.349-1.757-.116-.138-.264-.19-.138-.053-.318-.053-.212 0-.38.053-.16.052-.297.19-.212.212-.307.635-.085.423-.106 1.122zM73.026 22.507v-.042h.646V14.77h-.646v-.043h1.704v7.737h.656v.042z"/></g></svg>